<svg width="600" height="400" viewBox="0 0 600 400" xmlns="http://www.w3.org/2000/svg">
  <style>
    .animated {
      animation-duration: 3s;
      animation-iteration-count: infinite;
      animation-timing-function: ease-in-out;
    }
    
    @keyframes float {
      0% { transform: translate(0, 0); }
      50% { transform: translate(0, -10px); }
      100% { transform: translate(0, 0); }
    }
    
    @keyframes pulse {
      0% { transform: scale(1); }
      50% { transform: scale(1.05); }
      100% { transform: scale(1); }
    }
    
    .float { animation-name: float; }
    .pulse { animation-name: pulse; }
  </style>

  <!-- Background elements -->
  <circle cx="300" cy="200" r="150" fill="#f5f7ff" />
  <ellipse cx="300" cy="330" rx="230" ry="30" fill="#e0e7ff" opacity="0.5" />
  
  <!-- Decorative elements -->
  <circle cx="150" cy="100" r="10" fill="#4b6cb7" opacity="0.2" class="animated float" />
  <circle cx="450" cy="150" r="15" fill="#ff6b6b" opacity="0.2" class="animated float" />
  <circle cx="200" cy="300" r="12" fill="#60dfcd" opacity="0.2" class="animated float" />
  <circle cx="400" cy="250" r="8" fill="#ffb347" opacity="0.2" class="animated float" />
  
  <!-- Envelope base -->
  <g class="animated pulse">
    <rect x="200" y="150" width="200" height="130" rx="10" fill="#4b6cb7" />
    
    <!-- Envelope flap (open) -->
    <path d="M200,150 L300,210 L400,150" stroke="#fff" stroke-width="3" fill="none" />
    
    <!-- Envelope body details -->
    <rect x="220" y="180" width="160" height="80" rx="5" fill="#fff" />
    
    <!-- Mail content lines -->
    <line x1="240" y1="200" x2="360" y2="200" stroke="#e0e7ff" stroke-width="5" />
    <line x1="240" y1="220" x2="360" y2="220" stroke="#e0e7ff" stroke-width="5" />
    <line x1="240" y1="240" x2="320" y2="240" stroke="#e0e7ff" stroke-width="5" />
  </g>
  
  <!-- Flying message with animation -->
  <g transform="translate(330, 100)" class="animated float">
    <rect x="0" y="0" width="80" height="50" rx="10" fill="#ff6b6b" />
    <circle cx="20" cy="20" r="5" fill="#fff" />
    <circle cx="40" cy="20" r="5" fill="#fff" />
    <circle cx="60" cy="20" r="5" fill="#fff" />
    <path d="M20,35 Q40,45 60,35" stroke="#fff" stroke-width="2" fill="none" />
  </g>
  
  <!-- Paper plane with animation -->
  <g transform="translate(120, 120)" class="animated float">
    <path d="M0,0 L40,20 L0,40 L10,20 Z" fill="#ffb347" />
  </g>
</svg> 